# WaveFront *.obj file (generated by CINEMA 4D)

mtllib ./玻璃墙.mtl

v -250 0.53698670864105 -5
v -250 200.5369873046875 -5
v 250 0.04479444772005 -5
v 250 200.0447998046875 -5
v 250 0.04479444772005 5
v 250 200.0447998046875 5
v -250 0.53698670864105 5
v -250 200.5369873046875 5
v -260 0.53698670864105 -5
v 260 200.0447998046875 305
v -260 0.53698670864105 5
v -260 200.5369873046875 5
v -250 0.53698670864105 -305
v -250 200.5369873046875 -305
v -260 0.53698670864105 -305
v -260 200.5369873046875 -305
v 260 0.04479444772005 -5
v 260 200.0447998046875 -5
v 260 0.04479444772005 5
v 260 0.04479444772005 305
v 250 0.04479444772005 305
v 250 200.0447998046875 305
# 22 vertices

vn 0 1 0
vn 0 0 0
vn -1 0 0
vn 0.00049218733329 0.99999988079071 0
vn 0.00032812487916 0.99999994039536 0
vn 1 0 0
vn 0 0 -1
vn 0 0 1
vn 0.00098437455017 0.99999952316284 0
vn -0.00049219210632 -0.99999988079071 0
vn -0.00032812808058 -0.99999994039536 0
vn 0 -1 0
# 12 normals

vt 0 1 0
vt 1 1 0
vt 0 0 0
vt 1 0 0
# 4 texture coordinates

o 墙-1
usemtl 材质.2
f 12/1/1 8/1/1 2/2/1 14/2/1 16/2/1
f 18/1/1 4/1/4 6/2/5 22/2/1 10/2/1
f 2/3/9 8/1/9 6/2/5 4/4/4
f 7/3/10 1/1/11 3/2/10 5/4/11
f 11/3/8 7/3/8 8/1/8 12/1/8
f 16/2/7 14/2/7 13/4/7 15/4/7
f 9/4/12 1/4/11 7/3/10 11/3/12
f 13/4/12 1/4/11 9/4/12 15/4/12
f 10/2/8 22/2/8 21/4/8 20/4/8
f 19/4/12 5/4/11 3/3/10 17/3/12
f 21/4/12 5/4/11 19/4/12 20/4/12
f 2/1/2 2/2/2 1/4/2
f 14/1/2 14/2/2 2/4/2
f 8/1/2 8/2/2 2/4/2
f 4/1/2 4/2/2 2/4/2
f 1/1/2 1/2/2 9/4/2
f 1/1/2 1/2/2 13/4/2
f 1/1/2 1/2/2 7/4/2
f 1/1/2 1/2/2 3/4/2
f 13/1/2 13/2/2 14/4/2
f 16/1/2 16/2/2 14/4/2
f 12/1/2 12/2/2 8/4/2
f 7/1/2 7/2/2 8/4/2
f 6/1/2 6/2/2 8/4/2
f 6/1/2 6/2/2 4/4/2
f 18/1/2 18/2/2 4/4/2
f 3/1/2 3/2/2 4/4/2
f 9/1/2 9/2/2 15/4/2
f 9/1/2 9/2/2 11/4/2
f 13/1/2 13/2/2 15/4/2
f 7/1/2 7/2/2 11/4/2
f 7/1/2 7/2/2 5/4/2
f 3/1/2 3/2/2 17/4/2
f 3/1/2 3/2/2 5/4/2
f 15/1/2 15/2/2 16/4/2
f 12/1/2 12/2/2 16/4/2
f 11/1/2 11/2/2 12/4/2
f 5/1/2 5/2/2 6/4/2
f 22/1/2 22/2/2 6/4/2
f 10/1/2 10/2/2 18/4/2
f 17/1/2 17/2/2 18/4/2
f 5/1/2 5/2/2 19/4/2
f 5/1/2 5/2/2 21/4/2
f 17/1/2 17/2/2 19/4/2
f 21/1/2 21/2/2 22/4/2
f 10/1/2 10/2/2 22/4/2
f 20/1/2 20/2/2 10/4/2
f 19/1/2 19/2/2 20/4/2
f 21/1/2 21/2/2 20/4/2
f 1/1/2 1/2/2 2/4/2
f 1/1/2 1/2/2 1/4/2
f 3/1/2 3/2/2 1/4/2
f 1/1/2 1/2/2 1/4/2
f 7/1/2 7/2/2 1/4/2
f 1/1/2 1/2/2 1/4/2
f 13/1/2 13/2/2 1/4/2
f 1/1/2 1/2/2 1/4/2
f 9/1/2 9/2/2 1/4/2
f 9/1/2 9/2/2 1/4/2
f 13/1/2 13/2/2 1/4/2
f 2/1/2 2/2/2 1/4/2
f 7/1/2 7/2/2 1/4/2
f 3/1/2 3/2/2 1/4/2
f 2/1/2 2/2/2 4/4/2
f 2/1/2 2/2/2 2/4/2
f 2/1/2 2/2/2 8/4/2
f 2/1/2 2/2/2 2/4/2
f 2/1/2 2/2/2 14/4/2
f 2/1/2 2/2/2 2/4/2
f 2/1/2 2/2/2 14/4/2
f 2/1/2 2/2/2 8/4/2
f 2/1/2 2/2/2 4/4/2
f 3/1/2 3/2/2 1/4/2
f 7/1/2 7/2/2 1/4/2
f 13/1/2 13/2/2 1/4/2
f 9/1/2 9/2/2 1/4/2
f 2/1/2 2/2/2 1/4/2
f 3/1/2 3/2/2 3/4/2
f 5/1/2 5/2/2 3/4/2
f 3/1/2 3/2/2 3/4/2
f 17/1/2 17/2/2 3/4/2
f 3/1/2 3/2/2 3/4/2
f 4/1/2 4/2/2 3/4/2
f 17/1/2 17/2/2 3/4/2
f 5/1/2 5/2/2 3/4/2
f 4/1/2 4/2/2 3/4/2
f 7/1/2 7/2/2 7/4/2
f 5/1/2 5/2/2 7/4/2
f 7/1/2 7/2/2 7/4/2
f 11/1/2 11/2/2 7/4/2
f 7/1/2 7/2/2 7/4/2
f 8/1/2 8/2/2 7/4/2
f 11/1/2 11/2/2 7/4/2
f 8/1/2 8/2/2 7/4/2
f 5/1/2 5/2/2 7/4/2
f 13/1/2 13/2/2 13/4/2
f 15/1/2 15/2/2 13/4/2
f 13/1/2 13/2/2 13/4/2
f 14/1/2 14/2/2 13/4/2
f 15/1/2 15/2/2 13/4/2
f 14/1/2 14/2/2 13/4/2
f 9/1/2 9/2/2 9/4/2
f 11/1/2 11/2/2 9/4/2
f 9/1/2 9/2/2 9/4/2
f 15/1/2 15/2/2 9/4/2
f 15/1/2 15/2/2 9/4/2
f 11/1/2 11/2/2 9/4/2
f 4/1/2 4/2/2 4/4/2
f 4/1/2 4/2/2 18/4/2
f 4/1/2 4/2/2 4/4/2
f 4/1/2 4/2/2 6/4/2
f 4/1/2 4/2/2 4/4/2
f 4/1/2 4/2/2 6/4/2
f 4/1/2 4/2/2 18/4/2
f 2/1/2 2/2/2 4/4/2
f 2/1/2 2/2/2 8/4/2
f 2/1/2 2/2/2 14/4/2
f 8/1/2 8/2/2 6/4/2
f 8/1/2 8/2/2 8/4/2
f 8/1/2 8/2/2 8/4/2
f 8/1/2 8/2/2 12/4/2
f 8/1/2 8/2/2 8/4/2
f 8/1/2 8/2/2 12/4/2
f 8/1/2 8/2/2 6/4/2
f 14/1/2 14/2/2 16/4/2
f 14/1/2 14/2/2 14/4/2
f 14/1/2 14/2/2 14/4/2
f 14/1/2 14/2/2 16/4/2
f 5/1/2 5/2/2 3/4/2
f 17/1/2 17/2/2 3/4/2
f 4/1/2 4/2/2 3/4/2
f 5/1/2 5/2/2 7/4/2
f 11/1/2 11/2/2 7/4/2
f 8/1/2 8/2/2 7/4/2
f 15/1/2 15/2/2 13/4/2
f 14/1/2 14/2/2 13/4/2
f 11/1/2 11/2/2 9/4/2
f 15/1/2 15/2/2 9/4/2
f 5/1/2 5/2/2 5/4/2
f 21/1/2 21/2/2 5/4/2
f 5/1/2 5/2/2 5/4/2
f 19/1/2 19/2/2 5/4/2
f 5/1/2 5/2/2 5/4/2
f 6/1/2 6/2/2 5/4/2
f 5/1/2 5/2/2 5/4/2
f 19/1/2 19/2/2 5/4/2
f 21/1/2 21/2/2 5/4/2
f 6/1/2 6/2/2 5/4/2
f 17/1/2 17/2/2 17/4/2
f 19/1/2 19/2/2 17/4/2
f 17/1/2 17/2/2 17/4/2
f 18/1/2 18/2/2 17/4/2
f 19/1/2 19/2/2 17/4/2
f 18/1/2 18/2/2 17/4/2
f 11/1/2 11/2/2 11/4/2
f 12/1/2 12/2/2 11/4/2
f 11/1/2 11/2/2 11/4/2
f 12/1/2 12/2/2 11/4/2
f 15/1/2 15/2/2 15/4/2
f 16/1/2 16/2/2 15/4/2
f 15/1/2 15/2/2 15/4/2
f 16/1/2 16/2/2 15/4/2
f 4/1/2 4/2/2 18/4/2
f 4/1/2 4/2/2 6/4/2
f 18/1/2 18/2/2 18/4/2
f 18/1/2 18/2/2 10/4/2
f 18/1/2 18/2/2 18/4/2
f 18/1/2 18/2/2 10/4/2
f 6/1/2 6/2/2 22/4/2
f 6/1/2 6/2/2 6/4/2
f 6/1/2 6/2/2 6/4/2
f 6/1/2 6/2/2 6/4/2
f 6/1/2 6/2/2 22/4/2
f 8/1/2 8/2/2 6/4/2
f 8/1/2 8/2/2 12/4/2
f 14/1/2 14/2/2 16/4/2
f 12/1/2 12/2/2 12/4/2
f 12/1/2 12/2/2 12/4/2
f 12/1/2 12/2/2 16/4/2
f 12/1/2 12/2/2 16/4/2
f 16/1/2 16/2/2 16/4/2
f 16/1/2 16/2/2 16/4/2
f 21/1/2 21/2/2 5/4/2
f 19/1/2 19/2/2 5/4/2
f 6/1/2 6/2/2 5/4/2
f 19/1/2 19/2/2 17/4/2
f 18/1/2 18/2/2 17/4/2
f 12/1/2 12/2/2 11/4/2
f 16/1/2 16/2/2 15/4/2
f 21/1/2 21/2/2 21/4/2
f 20/1/2 20/2/2 21/4/2
f 21/1/2 21/2/2 21/4/2
f 22/1/2 22/2/2 21/4/2
f 20/1/2 20/2/2 21/4/2
f 22/1/2 22/2/2 21/4/2
f 19/1/2 19/2/2 19/4/2
f 20/1/2 20/2/2 19/4/2
f 19/1/2 19/2/2 19/4/2
f 20/1/2 20/2/2 19/4/2
f 18/1/2 18/2/2 10/4/2
f 6/1/2 6/2/2 22/4/2
f 10/1/2 10/2/2 20/4/2
f 10/1/2 10/2/2 10/4/2
f 10/1/2 10/2/2 10/4/2
f 10/1/2 10/2/2 22/4/2
f 10/1/2 10/2/2 20/4/2
f 10/1/2 10/2/2 22/4/2
f 22/1/2 22/2/2 22/4/2
f 22/1/2 22/2/2 22/4/2
f 12/1/2 12/2/2 16/4/2
f 20/1/2 20/2/2 21/4/2
f 22/1/2 22/2/2 21/4/2
f 20/1/2 20/2/2 19/4/2
f 20/1/2 20/2/2 20/4/2
f 20/1/2 20/2/2 20/4/2
f 10/1/2 10/2/2 20/4/2
f 10/1/2 10/2/2 22/4/2
f 1/1/2 1/2/2 2/4/2
f 3/1/2 3/2/2 1/4/2
f 1/1/2 1/2/2 1/4/2
f 7/1/2 7/2/2 1/4/2
f 1/1/2 1/2/2 1/4/2
f 1/1/2 1/2/2 1/4/2
f 13/1/2 13/2/2 1/4/2
f 1/1/2 1/2/2 1/4/2
f 9/1/2 9/2/2 1/4/2
f 1/1/2 1/2/2 1/4/2
f 9/1/2 9/2/2 1/4/2
f 1/1/2 1/2/2 1/4/2
f 1/1/2 1/2/2 1/4/2
f 1/1/2 1/2/2 1/4/2
f 13/1/2 13/2/2 1/4/2
f 1/1/2 1/2/2 1/4/2
f 1/1/2 1/2/2 1/4/2
f 1/1/2 1/2/2 1/4/2
f 7/1/2 7/2/2 1/4/2
f 1/1/2 1/2/2 1/4/2
f 1/1/2 1/2/2 1/4/2
f 1/1/2 1/2/2 1/4/2
f 3/1/2 3/2/2 1/4/2
f 1/1/2 1/2/2 1/4/2
f 1/1/2 1/2/2 1/4/2
f 1/1/2 1/2/2 1/4/2
f 2/1/2 2/2/2 1/4/2
f 1/1/2 1/2/2 1/4/2
f 3/1/2 3/2/2 1/4/2
f 1/1/2 1/2/2 1/4/2
f 7/1/2 7/2/2 1/4/2
f 1/1/2 1/2/2 1/4/2
f 13/1/2 13/2/2 1/4/2
f 1/1/2 1/2/2 1/4/2
f 9/1/2 9/2/2 1/4/2
f 2/1/2 2/2/2 1/4/2
f 9/1/2 9/2/2 1/4/2
f 13/1/2 13/2/2 1/4/2
f 2/1/2 2/2/2 1/4/2
f 7/1/2 7/2/2 1/4/2
f 3/1/2 3/2/2 1/4/2
f 2/1/2 2/2/2 2/4/2
f 2/1/2 2/2/2 4/4/2
f 2/1/2 2/2/2 2/4/2
f 2/1/2 2/2/2 8/4/2
f 2/1/2 2/2/2 2/4/2
f 2/1/2 2/2/2 14/4/2
f 2/1/2 2/2/2 2/4/2
f 2/1/2 2/2/2 2/4/2
f 2/1/2 2/2/2 2/4/2
f 2/1/2 2/2/2 14/4/2
f 2/1/2 2/2/2 2/4/2
f 2/1/2 2/2/2 2/4/2
f 2/1/2 2/2/2 2/4/2
f 2/1/2 2/2/2 8/4/2
f 2/1/2 2/2/2 2/4/2
f 2/1/2 2/2/2 2/4/2
f 2/1/2 2/2/2 2/4/2
f 2/1/2 2/2/2 4/4/2
f 2/1/2 2/2/2 2/4/2
f 2/1/2 2/2/2 4/4/2
f 2/1/2 2/2/2 2/4/2
f 2/1/2 2/2/2 8/4/2
f 2/1/2 2/2/2 2/4/2
f 2/1/2 2/2/2 14/4/2
f 2/1/2 2/2/2 2/4/2
f 2/1/2 2/2/2 14/4/2
f 2/1/2 2/2/2 8/4/2
f 2/1/2 2/2/2 4/4/2
f 4/1/2 4/2/2 3/4/2
f 3/1/2 3/2/2 3/4/2
f 5/1/2 5/2/2 3/4/2
f 3/1/2 3/2/2 3/4/2
f 17/1/2 17/2/2 3/4/2
f 3/1/2 3/2/2 3/4/2
f 4/1/2 4/2/2 3/4/2
f 3/1/2 3/2/2 3/4/2
f 3/1/2 3/2/2 3/4/2
f 3/1/2 3/2/2 3/4/2
f 17/1/2 17/2/2 3/4/2
f 3/1/2 3/2/2 3/4/2
f 3/1/2 3/2/2 3/4/2
f 3/1/2 3/2/2 3/4/2
f 5/1/2 5/2/2 3/4/2
f 3/1/2 3/2/2 3/4/2
f 3/1/2 3/2/2 3/4/2
f 3/1/2 3/2/2 3/4/2
f 3/1/2 3/2/2 3/4/2
f 3/1/2 3/2/2 3/4/2
f 5/1/2 5/2/2 3/4/2
f 3/1/2 3/2/2 3/4/2
f 17/1/2 17/2/2 3/4/2
f 3/1/2 3/2/2 3/4/2
f 4/1/2 4/2/2 3/4/2
f 17/1/2 17/2/2 3/4/2
f 5/1/2 5/2/2 3/4/2
f 4/1/2 4/2/2 3/4/2
f 3/1/2 3/2/2 1/4/2
f 7/1/2 7/2/2 1/4/2
f 2/1/2 2/2/2 1/4/2
f 13/1/2 13/2/2 1/4/2
f 9/1/2 9/2/2 1/4/2
f 1/1/2 1/2/2 1/4/2
f 1/1/2 1/2/2 1/4/2
f 1/1/2 1/2/2 1/4/2
f 5/1/2 5/2/2 7/4/2
f 7/1/2 7/2/2 7/4/2
f 8/1/2 8/2/2 7/4/2
f 7/1/2 7/2/2 7/4/2
f 11/1/2 11/2/2 7/4/2
f 7/1/2 7/2/2 7/4/2
f 8/1/2 8/2/2 7/4/2
f 7/1/2 7/2/2 7/4/2
f 7/1/2 7/2/2 7/4/2
f 7/1/2 7/2/2 7/4/2
f 11/1/2 11/2/2 7/4/2
f 7/1/2 7/2/2 7/4/2
f 7/1/2 7/2/2 7/4/2
f 7/1/2 7/2/2 7/4/2
f 5/1/2 5/2/2 7/4/2
f 7/1/2 7/2/2 7/4/2
f 7/1/2 7/2/2 7/4/2
f 7/1/2 7/2/2 7/4/2
f 7/1/2 7/2/2 7/4/2
f 7/1/2 7/2/2 7/4/2
f 5/1/2 5/2/2 7/4/2
f 7/1/2 7/2/2 7/4/2
f 11/1/2 11/2/2 7/4/2
f 7/1/2 7/2/2 7/4/2
f 8/1/2 8/2/2 7/4/2
f 11/1/2 11/2/2 7/4/2
f 8/1/2 8/2/2 7/4/2
f 5/1/2 5/2/2 7/4/2
f 14/1/2 14/2/2 13/4/2
f 13/1/2 13/2/2 13/4/2
f 15/1/2 15/2/2 13/4/2
f 13/1/2 13/2/2 13/4/2
f 14/1/2 14/2/2 13/4/2
f 13/1/2 13/2/2 13/4/2
f 13/1/2 13/2/2 13/4/2
f 13/1/2 13/2/2 13/4/2
f 15/1/2 15/2/2 13/4/2
f 13/1/2 13/2/2 13/4/2
f 13/1/2 13/2/2 13/4/2
f 13/1/2 13/2/2 13/4/2
f 13/1/2 13/2/2 13/4/2
f 13/1/2 13/2/2 13/4/2
f 15/1/2 15/2/2 13/4/2
f 13/1/2 13/2/2 13/4/2
f 14/1/2 14/2/2 13/4/2
f 15/1/2 15/2/2 13/4/2
f 14/1/2 14/2/2 13/4/2
f 11/1/2 11/2/2 9/4/2
f 9/1/2 9/2/2 9/4/2
f 15/1/2 15/2/2 9/4/2
f 9/1/2 9/2/2 9/4/2
f 15/1/2 15/2/2 9/4/2
f 9/1/2 9/2/2 9/4/2
f 9/1/2 9/2/2 9/4/2
f 9/1/2 9/2/2 9/4/2
f 11/1/2 11/2/2 9/4/2
f 9/1/2 9/2/2 9/4/2
f 9/1/2 9/2/2 9/4/2
f 9/1/2 9/2/2 9/4/2
f 9/1/2 9/2/2 9/4/2
f 9/1/2 9/2/2 9/4/2
f 11/1/2 11/2/2 9/4/2
f 9/1/2 9/2/2 9/4/2
f 15/1/2 15/2/2 9/4/2
f 15/1/2 15/2/2 9/4/2
f 11/1/2 11/2/2 9/4/2
f 2/1/2 2/2/2 1/4/2
f 1/1/2 1/2/2 1/4/2
f 9/1/2 9/2/2 1/4/2
f 1/1/2 1/2/2 1/4/2
f 13/1/2 13/2/2 1/4/2
f 1/1/2 1/2/2 1/4/2
f 7/1/2 7/2/2 1/4/2
f 1/1/2 1/2/2 1/4/2
f 3/1/2 3/2/2 1/4/2
f 1/1/2 1/2/2 1/4/2
f 1/1/2 1/2/2 1/4/2
f 1/1/2 1/2/2 1/4/2
f 1/1/2 1/2/2 1/4/2
f 2/1/2 2/2/2 4/4/2
f 2/1/2 2/2/2 8/4/2
f 2/1/2 2/2/2 14/4/2
f 2/1/2 2/2/2 2/4/2
f 2/1/2 2/2/2 2/4/2
f 4/1/2 4/2/2 4/4/2
f 4/1/2 4/2/2 18/4/2
f 4/1/2 4/2/2 4/4/2
f 4/1/2 4/2/2 6/4/2
f 4/1/2 4/2/2 4/4/2
f 4/1/2 4/2/2 4/4/2
f 4/1/2 4/2/2 4/4/2
f 4/1/2 4/2/2 6/4/2
f 4/1/2 4/2/2 4/4/2
f 4/1/2 4/2/2 4/4/2
f 4/1/2 4/2/2 4/4/2
f 4/1/2 4/2/2 18/4/2
f 4/1/2 4/2/2 4/4/2
f 4/1/2 4/2/2 4/4/2
f 4/1/2 4/2/2 4/4/2
f 4/1/2 4/2/2 4/4/2
f 4/1/2 4/2/2 4/4/2
f 4/1/2 4/2/2 4/4/2
f 4/1/2 4/2/2 18/4/2
f 4/1/2 4/2/2 4/4/2
f 4/1/2 4/2/2 6/4/2
f 4/1/2 4/2/2 4/4/2
f 4/1/2 4/2/2 6/4/2
f 4/1/2 4/2/2 18/4/2
f 8/1/2 8/2/2 8/4/2
f 8/1/2 8/2/2 6/4/2
f 8/1/2 8/2/2 8/4/2
f 8/1/2 8/2/2 12/4/2
f 8/1/2 8/2/2 8/4/2
f 8/1/2 8/2/2 8/4/2
f 8/1/2 8/2/2 8/4/2
f 8/1/2 8/2/2 12/4/2
f 8/1/2 8/2/2 8/4/2
f 8/1/2 8/2/2 8/4/2
f 8/1/2 8/2/2 8/4/2
f 8/1/2 8/2/2 8/4/2
f 8/1/2 8/2/2 8/4/2
f 8/1/2 8/2/2 6/4/2
f 8/1/2 8/2/2 8/4/2
f 8/1/2 8/2/2 8/4/2
f 8/1/2 8/2/2 8/4/2
f 8/1/2 8/2/2 6/4/2
f 8/1/2 8/2/2 8/4/2
f 8/1/2 8/2/2 8/4/2
f 8/1/2 8/2/2 12/4/2
f 8/1/2 8/2/2 8/4/2
f 8/1/2 8/2/2 12/4/2
f 8/1/2 8/2/2 6/4/2
f 14/1/2 14/2/2 14/4/2
f 14/1/2 14/2/2 16/4/2
f 14/1/2 14/2/2 14/4/2
f 14/1/2 14/2/2 14/4/2
f 14/1/2 14/2/2 14/4/2
f 14/1/2 14/2/2 14/4/2
f 14/1/2 14/2/2 14/4/2
f 14/1/2 14/2/2 16/4/2
f 14/1/2 14/2/2 14/4/2
f 14/1/2 14/2/2 14/4/2
f 14/1/2 14/2/2 14/4/2
f 14/1/2 14/2/2 16/4/2
f 14/1/2 14/2/2 14/4/2
f 14/1/2 14/2/2 14/4/2
f 14/1/2 14/2/2 16/4/2
f 2/1/2 2/2/2 2/4/2
f 2/1/2 2/2/2 14/4/2
f 2/1/2 2/2/2 2/4/2
f 2/1/2 2/2/2 8/4/2
f 2/1/2 2/2/2 2/4/2
f 2/1/2 2/2/2 4/4/2
f 2/1/2 2/2/2 2/4/2
f 2/1/2 2/2/2 2/4/2
f 2/1/2 2/2/2 2/4/2
f 4/1/2 4/2/2 3/4/2
f 5/1/2 5/2/2 3/4/2
f 17/1/2 17/2/2 3/4/2
f 3/1/2 3/2/2 3/4/2
f 3/1/2 3/2/2 3/4/2
f 6/1/2 6/2/2 5/4/2
f 5/1/2 5/2/2 5/4/2
f 21/1/2 21/2/2 5/4/2
f 5/1/2 5/2/2 5/4/2
f 19/1/2 19/2/2 5/4/2
f 5/1/2 5/2/2 5/4/2
f 5/1/2 5/2/2 5/4/2
f 5/1/2 5/2/2 5/4/2
f 6/1/2 6/2/2 5/4/2
f 5/1/2 5/2/2 5/4/2
f 5/1/2 5/2/2 5/4/2
f 5/1/2 5/2/2 5/4/2
f 19/1/2 19/2/2 5/4/2
f 5/1/2 5/2/2 5/4/2
f 5/1/2 5/2/2 5/4/2
f 5/1/2 5/2/2 5/4/2
f 21/1/2 21/2/2 5/4/2
f 5/1/2 5/2/2 5/4/2
f 5/1/2 5/2/2 5/4/2
f 5/1/2 5/2/2 5/4/2
f 5/1/2 5/2/2 5/4/2
f 5/1/2 5/2/2 5/4/2
f 5/1/2 5/2/2 5/4/2
f 5/1/2 5/2/2 5/4/2
f 21/1/2 21/2/2 5/4/2
f 5/1/2 5/2/2 5/4/2
f 19/1/2 19/2/2 5/4/2
f 5/1/2 5/2/2 5/4/2
f 6/1/2 6/2/2 5/4/2
f 5/1/2 5/2/2 5/4/2
f 19/1/2 19/2/2 5/4/2
f 21/1/2 21/2/2 5/4/2
f 6/1/2 6/2/2 5/4/2
f 18/1/2 18/2/2 17/4/2
f 17/1/2 17/2/2 17/4/2
f 19/1/2 19/2/2 17/4/2
f 17/1/2 17/2/2 17/4/2
f 18/1/2 18/2/2 17/4/2
f 17/1/2 17/2/2 17/4/2
f 17/1/2 17/2/2 17/4/2
f 17/1/2 17/2/2 17/4/2
f 19/1/2 19/2/2 17/4/2
f 17/1/2 17/2/2 17/4/2
f 17/1/2 17/2/2 17/4/2
f 17/1/2 17/2/2 17/4/2
f 17/1/2 17/2/2 17/4/2
f 17/1/2 17/2/2 17/4/2
f 19/1/2 19/2/2 17/4/2
f 17/1/2 17/2/2 17/4/2
f 18/1/2 18/2/2 17/4/2
f 19/1/2 19/2/2 17/4/2
f 18/1/2 18/2/2 17/4/2
f 4/1/2 4/2/2 3/4/2
f 3/1/2 3/2/2 3/4/2
f 17/1/2 17/2/2 3/4/2
f 3/1/2 3/2/2 3/4/2
f 5/1/2 5/2/2 3/4/2
f 3/1/2 3/2/2 3/4/2
f 3/1/2 3/2/2 3/4/2
f 3/1/2 3/2/2 3/4/2
f 3/1/2 3/2/2 3/4/2
f 5/1/2 5/2/2 7/4/2
f 8/1/2 8/2/2 7/4/2
f 11/1/2 11/2/2 7/4/2
f 7/1/2 7/2/2 7/4/2
f 7/1/2 7/2/2 7/4/2
f 14/1/2 14/2/2 13/4/2
f 15/1/2 15/2/2 13/4/2
f 13/1/2 13/2/2 13/4/2
f 11/1/2 11/2/2 9/4/2
f 15/1/2 15/2/2 9/4/2
f 9/1/2 9/2/2 9/4/2
f 2/1/2 2/2/2 1/4/2
f 9/1/2 9/2/2 1/4/2
f 13/1/2 13/2/2 1/4/2
f 7/1/2 7/2/2 1/4/2
f 3/1/2 3/2/2 1/4/2
f 12/1/2 12/2/2 11/4/2
f 11/1/2 11/2/2 11/4/2
f 11/1/2 11/2/2 11/4/2
f 11/1/2 11/2/2 11/4/2
f 12/1/2 12/2/2 11/4/2
f 11/1/2 11/2/2 11/4/2
f 11/1/2 11/2/2 11/4/2
f 11/1/2 11/2/2 11/4/2
f 11/1/2 11/2/2 11/4/2
f 11/1/2 11/2/2 11/4/2
f 11/1/2 11/2/2 11/4/2
f 11/1/2 11/2/2 11/4/2
f 12/1/2 12/2/2 11/4/2
f 11/1/2 11/2/2 11/4/2
f 12/1/2 12/2/2 11/4/2
f 8/1/2 8/2/2 7/4/2
f 7/1/2 7/2/2 7/4/2
f 11/1/2 11/2/2 7/4/2
f 7/1/2 7/2/2 7/4/2
f 5/1/2 5/2/2 7/4/2
f 7/1/2 7/2/2 7/4/2
f 7/1/2 7/2/2 7/4/2
f 7/1/2 7/2/2 7/4/2
f 7/1/2 7/2/2 7/4/2
f 16/1/2 16/2/2 15/4/2
f 15/1/2 15/2/2 15/4/2
f 15/1/2 15/2/2 15/4/2
f 15/1/2 15/2/2 15/4/2
f 16/1/2 16/2/2 15/4/2
f 15/1/2 15/2/2 15/4/2
f 15/1/2 15/2/2 15/4/2
f 15/1/2 15/2/2 15/4/2
f 15/1/2 15/2/2 15/4/2
f 15/1/2 15/2/2 15/4/2
f 15/1/2 15/2/2 15/4/2
f 15/1/2 15/2/2 15/4/2
f 16/1/2 16/2/2 15/4/2
f 15/1/2 15/2/2 15/4/2
f 16/1/2 16/2/2 15/4/2
f 14/1/2 14/2/2 13/4/2
f 13/1/2 13/2/2 13/4/2
f 15/1/2 15/2/2 13/4/2
f 13/1/2 13/2/2 13/4/2
f 13/1/2 13/2/2 13/4/2
f 13/1/2 13/2/2 13/4/2
f 15/1/2 15/2/2 9/4/2
f 9/1/2 9/2/2 9/4/2
f 11/1/2 11/2/2 9/4/2
f 9/1/2 9/2/2 9/4/2
f 9/1/2 9/2/2 9/4/2
f 9/1/2 9/2/2 9/4/2
f 4/1/2 4/2/2 18/4/2
f 4/1/2 4/2/2 6/4/2
f 4/1/2 4/2/2 4/4/2
f 4/1/2 4/2/2 4/4/2
f 8/1/2 8/2/2 6/4/2
f 8/1/2 8/2/2 12/4/2
f 8/1/2 8/2/2 8/4/2
f 8/1/2 8/2/2 8/4/2
f 14/1/2 14/2/2 16/4/2
f 14/1/2 14/2/2 14/4/2
f 2/1/2 2/2/2 14/4/2
f 2/1/2 2/2/2 8/4/2
f 2/1/2 2/2/2 4/4/2
f 18/1/2 18/2/2 18/4/2
f 18/1/2 18/2/2 10/4/2
f 18/1/2 18/2/2 18/4/2
f 18/1/2 18/2/2 18/4/2
f 18/1/2 18/2/2 18/4/2
f 18/1/2 18/2/2 10/4/2
f 18/1/2 18/2/2 18/4/2
f 18/1/2 18/2/2 18/4/2
f 18/1/2 18/2/2 18/4/2
f 18/1/2 18/2/2 18/4/2
f 18/1/2 18/2/2 18/4/2
f 18/1/2 18/2/2 18/4/2
f 18/1/2 18/2/2 10/4/2
f 18/1/2 18/2/2 18/4/2
f 18/1/2 18/2/2 10/4/2
f 6/1/2 6/2/2 6/4/2
f 6/1/2 6/2/2 22/4/2
f 6/1/2 6/2/2 6/4/2
f 6/1/2 6/2/2 6/4/2
f 6/1/2 6/2/2 6/4/2
f 6/1/2 6/2/2 6/4/2
f 6/1/2 6/2/2 6/4/2
f 6/1/2 6/2/2 6/4/2
f 6/1/2 6/2/2 6/4/2
f 6/1/2 6/2/2 22/4/2
f 6/1/2 6/2/2 6/4/2
f 6/1/2 6/2/2 6/4/2
f 6/1/2 6/2/2 6/4/2
f 6/1/2 6/2/2 6/4/2
f 6/1/2 6/2/2 6/4/2
f 6/1/2 6/2/2 22/4/2
f 6/1/2 6/2/2 6/4/2
f 6/1/2 6/2/2 6/4/2
f 6/1/2 6/2/2 6/4/2
f 6/1/2 6/2/2 22/4/2
f 4/1/2 4/2/2 4/4/2
f 4/1/2 4/2/2 6/4/2
f 4/1/2 4/2/2 4/4/2
f 4/1/2 4/2/2 18/4/2
f 4/1/2 4/2/2 4/4/2
f 4/1/2 4/2/2 4/4/2
f 4/1/2 4/2/2 4/4/2
f 4/1/2 4/2/2 4/4/2
f 12/1/2 12/2/2 12/4/2
f 12/1/2 12/2/2 16/4/2
f 12/1/2 12/2/2 12/4/2
f 12/1/2 12/2/2 16/4/2
f 12/1/2 12/2/2 12/4/2
f 12/1/2 12/2/2 12/4/2
f 12/1/2 12/2/2 12/4/2
f 12/1/2 12/2/2 12/4/2
f 12/1/2 12/2/2 12/4/2
f 12/1/2 12/2/2 12/4/2
f 12/1/2 12/2/2 12/4/2
f 12/1/2 12/2/2 12/4/2
f 12/1/2 12/2/2 12/4/2
f 12/1/2 12/2/2 16/4/2
f 12/1/2 12/2/2 16/4/2
f 8/1/2 8/2/2 8/4/2
f 8/1/2 8/2/2 12/4/2
f 8/1/2 8/2/2 8/4/2
f 8/1/2 8/2/2 6/4/2
f 8/1/2 8/2/2 8/4/2
f 8/1/2 8/2/2 8/4/2
f 8/1/2 8/2/2 8/4/2
f 8/1/2 8/2/2 8/4/2
f 16/1/2 16/2/2 16/4/2
f 16/1/2 16/2/2 16/4/2
f 16/1/2 16/2/2 16/4/2
f 16/1/2 16/2/2 16/4/2
f 16/1/2 16/2/2 16/4/2
f 16/1/2 16/2/2 16/4/2
f 16/1/2 16/2/2 16/4/2
f 16/1/2 16/2/2 16/4/2
f 16/1/2 16/2/2 16/4/2
f 16/1/2 16/2/2 16/4/2
f 16/1/2 16/2/2 16/4/2
f 14/1/2 14/2/2 14/4/2
f 14/1/2 14/2/2 16/4/2
f 14/1/2 14/2/2 14/4/2
f 14/1/2 14/2/2 14/4/2
f 14/1/2 14/2/2 14/4/2
f 6/1/2 6/2/2 5/4/2
f 21/1/2 21/2/2 5/4/2
f 19/1/2 19/2/2 5/4/2
f 5/1/2 5/2/2 5/4/2
f 5/1/2 5/2/2 5/4/2
f 5/1/2 5/2/2 5/4/2
f 18/1/2 18/2/2 17/4/2
f 19/1/2 19/2/2 17/4/2
f 17/1/2 17/2/2 17/4/2
f 4/1/2 4/2/2 3/4/2
f 17/1/2 17/2/2 3/4/2
f 5/1/2 5/2/2 3/4/2
f 22/1/2 22/2/2 21/4/2
f 21/1/2 21/2/2 21/4/2
f 20/1/2 20/2/2 21/4/2
f 21/1/2 21/2/2 21/4/2
f 22/1/2 22/2/2 21/4/2
f 21/1/2 21/2/2 21/4/2
f 21/1/2 21/2/2 21/4/2
f 21/1/2 21/2/2 21/4/2
f 20/1/2 20/2/2 21/4/2
f 21/1/2 21/2/2 21/4/2
f 21/1/2 21/2/2 21/4/2
f 21/1/2 21/2/2 21/4/2
f 21/1/2 21/2/2 21/4/2
f 21/1/2 21/2/2 21/4/2
f 20/1/2 20/2/2 21/4/2
f 21/1/2 21/2/2 21/4/2
f 22/1/2 22/2/2 21/4/2
f 20/1/2 20/2/2 21/4/2
f 22/1/2 22/2/2 21/4/2
f 20/1/2 20/2/2 19/4/2
f 19/1/2 19/2/2 19/4/2
f 19/1/2 19/2/2 19/4/2
f 19/1/2 19/2/2 19/4/2
f 20/1/2 20/2/2 19/4/2
f 19/1/2 19/2/2 19/4/2
f 19/1/2 19/2/2 19/4/2
f 19/1/2 19/2/2 19/4/2
f 19/1/2 19/2/2 19/4/2
f 19/1/2 19/2/2 19/4/2
f 19/1/2 19/2/2 19/4/2
f 19/1/2 19/2/2 19/4/2
f 20/1/2 20/2/2 19/4/2
f 19/1/2 19/2/2 19/4/2
f 20/1/2 20/2/2 19/4/2
f 6/1/2 6/2/2 5/4/2
f 5/1/2 5/2/2 5/4/2
f 19/1/2 19/2/2 5/4/2
f 5/1/2 5/2/2 5/4/2
f 21/1/2 21/2/2 5/4/2
f 5/1/2 5/2/2 5/4/2
f 5/1/2 5/2/2 5/4/2
f 5/1/2 5/2/2 5/4/2
f 5/1/2 5/2/2 5/4/2
f 5/1/2 5/2/2 5/4/2
f 5/1/2 5/2/2 5/4/2
f 18/1/2 18/2/2 17/4/2
f 17/1/2 17/2/2 17/4/2
f 19/1/2 19/2/2 17/4/2
f 17/1/2 17/2/2 17/4/2
f 17/1/2 17/2/2 17/4/2
f 17/1/2 17/2/2 17/4/2
f 12/1/2 12/2/2 11/4/2
f 11/1/2 11/2/2 11/4/2
f 8/1/2 8/2/2 7/4/2
f 11/1/2 11/2/2 7/4/2
f 5/1/2 5/2/2 7/4/2
f 16/1/2 16/2/2 15/4/2
f 15/1/2 15/2/2 15/4/2
f 14/1/2 14/2/2 13/4/2
f 15/1/2 15/2/2 13/4/2
f 15/1/2 15/2/2 9/4/2
f 11/1/2 11/2/2 9/4/2
f 12/1/2 12/2/2 11/4/2
f 11/1/2 11/2/2 11/4/2
f 11/1/2 11/2/2 11/4/2
f 11/1/2 11/2/2 11/4/2
f 11/1/2 11/2/2 11/4/2
f 16/1/2 16/2/2 15/4/2
f 15/1/2 15/2/2 15/4/2
f 15/1/2 15/2/2 15/4/2
f 15/1/2 15/2/2 15/4/2
f 15/1/2 15/2/2 15/4/2
f 18/1/2 18/2/2 10/4/2
f 18/1/2 18/2/2 18/4/2
f 6/1/2 6/2/2 22/4/2
f 6/1/2 6/2/2 6/4/2
f 6/1/2 6/2/2 6/4/2
f 4/1/2 4/2/2 6/4/2
f 4/1/2 4/2/2 18/4/2
f 12/1/2 12/2/2 16/4/2
f 12/1/2 12/2/2 12/4/2
f 8/1/2 8/2/2 12/4/2
f 8/1/2 8/2/2 6/4/2
f 16/1/2 16/2/2 16/4/2
f 14/1/2 14/2/2 16/4/2
f 10/1/2 10/2/2 10/4/2
f 10/1/2 10/2/2 22/4/2
f 10/1/2 10/2/2 10/4/2
f 10/1/2 10/2/2 20/4/2
f 10/1/2 10/2/2 10/4/2
f 10/1/2 10/2/2 22/4/2
f 10/1/2 10/2/2 10/4/2
f 10/1/2 10/2/2 10/4/2
f 10/1/2 10/2/2 10/4/2
f 10/1/2 10/2/2 10/4/2
f 10/1/2 10/2/2 10/4/2
f 10/1/2 10/2/2 20/4/2
f 10/1/2 10/2/2 10/4/2
f 10/1/2 10/2/2 20/4/2
f 10/1/2 10/2/2 10/4/2
f 10/1/2 10/2/2 10/4/2
f 10/1/2 10/2/2 22/4/2
f 10/1/2 10/2/2 20/4/2
f 10/1/2 10/2/2 22/4/2
f 18/1/2 18/2/2 18/4/2
f 18/1/2 18/2/2 10/4/2
f 18/1/2 18/2/2 18/4/2
f 18/1/2 18/2/2 18/4/2
f 18/1/2 18/2/2 18/4/2
f 22/1/2 22/2/2 22/4/2
f 22/1/2 22/2/2 22/4/2
f 22/1/2 22/2/2 22/4/2
f 22/1/2 22/2/2 22/4/2
f 22/1/2 22/2/2 22/4/2
f 22/1/2 22/2/2 22/4/2
f 22/1/2 22/2/2 22/4/2
f 22/1/2 22/2/2 22/4/2
f 22/1/2 22/2/2 22/4/2
f 22/1/2 22/2/2 22/4/2
f 22/1/2 22/2/2 22/4/2
f 6/1/2 6/2/2 6/4/2
f 6/1/2 6/2/2 22/4/2
f 6/1/2 6/2/2 6/4/2
f 6/1/2 6/2/2 6/4/2
f 6/1/2 6/2/2 6/4/2
f 6/1/2 6/2/2 6/4/2
f 6/1/2 6/2/2 6/4/2
f 12/1/2 12/2/2 12/4/2
f 12/1/2 12/2/2 16/4/2
f 12/1/2 12/2/2 12/4/2
f 12/1/2 12/2/2 12/4/2
f 12/1/2 12/2/2 12/4/2
f 16/1/2 16/2/2 16/4/2
f 16/1/2 16/2/2 16/4/2
f 16/1/2 16/2/2 16/4/2
f 16/1/2 16/2/2 16/4/2
f 22/1/2 22/2/2 21/4/2
f 20/1/2 20/2/2 21/4/2
f 21/1/2 21/2/2 21/4/2
f 20/1/2 20/2/2 19/4/2
f 19/1/2 19/2/2 19/4/2
f 6/1/2 6/2/2 5/4/2
f 19/1/2 19/2/2 5/4/2
f 21/1/2 21/2/2 5/4/2
f 18/1/2 18/2/2 17/4/2
f 19/1/2 19/2/2 17/4/2
f 20/1/2 20/2/2 20/4/2
f 20/1/2 20/2/2 20/4/2
f 20/1/2 20/2/2 20/4/2
f 20/1/2 20/2/2 20/4/2
f 20/1/2 20/2/2 20/4/2
f 20/1/2 20/2/2 20/4/2
f 20/1/2 20/2/2 20/4/2
f 20/1/2 20/2/2 20/4/2
f 20/1/2 20/2/2 20/4/2
f 20/1/2 20/2/2 20/4/2
f 20/1/2 20/2/2 20/4/2
f 22/1/2 22/2/2 21/4/2
f 21/1/2 21/2/2 21/4/2
f 20/1/2 20/2/2 21/4/2
f 21/1/2 21/2/2 21/4/2
f 21/1/2 21/2/2 21/4/2
f 21/1/2 21/2/2 21/4/2
f 20/1/2 20/2/2 19/4/2
f 19/1/2 19/2/2 19/4/2
f 19/1/2 19/2/2 19/4/2
f 19/1/2 19/2/2 19/4/2
f 19/1/2 19/2/2 19/4/2
f 12/1/2 12/2/2 11/4/2
f 16/1/2 16/2/2 15/4/2
f 10/1/2 10/2/2 22/4/2
f 10/1/2 10/2/2 20/4/2
f 10/1/2 10/2/2 10/4/2
f 18/1/2 18/2/2 10/4/2
f 22/1/2 22/2/2 22/4/2
f 6/1/2 6/2/2 22/4/2
f 12/1/2 12/2/2 16/4/2
f 10/1/2 10/2/2 10/4/2
f 10/1/2 10/2/2 22/4/2
f 10/1/2 10/2/2 10/4/2
f 10/1/2 10/2/2 20/4/2
f 10/1/2 10/2/2 10/4/2
f 10/1/2 10/2/2 10/4/2
f 22/1/2 22/2/2 22/4/2
f 22/1/2 22/2/2 22/4/2
f 22/1/2 22/2/2 22/4/2
f 22/1/2 22/2/2 22/4/2
f 20/1/2 20/2/2 20/4/2
f 22/1/2 22/2/2 21/4/2
f 20/1/2 20/2/2 21/4/2
f 20/1/2 20/2/2 19/4/2
f 20/1/2 20/2/2 20/4/2
f 20/1/2 20/2/2 20/4/2
f 20/1/2 20/2/2 20/4/2
f 20/1/2 20/2/2 20/4/2
f 10/1/2 10/2/2 22/4/2
f 10/1/2 10/2/2 20/4/2
f 12/1/2 12/1/2 8/1/2
f 8/1/2 8/1/2 2/2/2
f 2/2/2 2/2/2 14/2/2
f 14/2/2 14/2/2 16/2/2
f 16/2/2 16/2/2 12/1/2
f 16/2/2 16/2/2 14/2/2
f 14/2/2 14/2/2 13/4/2
f 13/4/2 13/4/2 15/4/2
f 15/4/2 15/4/2 16/2/2

usemtl 材质
f 11/3/3 12/1/3 16/2/3 15/4/3 9/1/2
f 17/3/6 18/1/6 10/2/6 20/2/6 19/1/2
f 1/3/7 2/1/7 4/2/7 3/4/7
f 5/3/8 6/1/8 8/2/8 7/4/8
f 14/2/6 2/2/6 1/4/6 13/4/6
f 17/3/7 3/3/7 4/1/7 18/1/7
f 22/2/3 6/2/3 5/4/3 21/4/3

